#!OML:ASF F:\VICON\USERDATA\INSTALL\rory3\rory3.ASF
:FULLY-SPECIFIED
:DEGREES
260
root 0.504385 17.8676 18.8507 -2.78116 1.69662 2.70732
lowerback 10.4648 -0.404429 -4.33055
upperback 0.669981 -1.01495 0.599855
thorax -5.08703 -0.396064 3.21865
lowerneck -16.7284 -2.70902 -2.12981
upperneck 19.5784 -3.4109 0.974748
head 8.95185 -1.65326 0.256585
rclavicle 4.67144e-015 8.34896e-015
rhumerus -30.1847 -23.52 -78.1886
rradius 22.3867
rwrist 9.2181
rhand -17.439 24.7446
rfingers 7.12502
rthumb 8.81172 -5.05144
lclavicle 4.67144e-015 8.34896e-015
lhumerus -22.4055 -3.40317 83.9111
lradius 27.2255
lwrist 6.35987
lhand -27.862 23.7418
lfingers 7.12502
lthumb -1.25266 53.7179
rfemur -30.9774 0.785119 18.5558
rtibia 44.0801
rfoot -7.29545 -13.7454
rtoes -2.67981
lfemur 3.40819 -3.45636 -27.6485
ltibia 21.1238
lfoot -17.2735 -0.45807
ltoes 3.07761
261
root 0.496305 17.8655 19.0239 -2.58527 1.58033 3.03353
lowerback 10.3365 -0.366985 -4.74284
upperback 0.632644 -1.01153 0.535638
thorax -5.04926 -0.386109 3.38165
lowerneck -16.4885 -2.68588 -2.00174
upperneck 19.4154 -3.39713 0.89268
head 8.8481 -1.648 0.21357
rclavicle -5.7896e-015 1.11319e-014
rhumerus -30.213 -23.499 -78.2299
rradius 22.4448
rwrist 9.43764
rhand -17.3084 24.5891
rfingers 7.12502
rthumb 8.93774 -5.20155
lclavicle -5.7896e-015 1.11319e-014
lhumerus -22.3419 -3.58835 83.893
lradius 27.6945
lwrist 6.64047
lhand -26.2821 25.8608
lfingers 7.12502
lthumb 0.273259 55.8403
rfemur -31.0572 1.24762 18.0591
rtibia 40.9481
rfoot -6.23106 -13.8614
rtoes -0.797247
lfemur 4.29276 -3.20745 -27.9836
ltibia 20.2687
lfoot -17.3618 -0.390221
ltoes 2.88755
262
root 0.483947 17.8666 19.1938 -2.31396 1.41262 2.79163
lowerback 10.2384 -0.363622 -4.57127
upperback 0.474752 -0.982096 0.60569
thorax -5.1647 -0.368837 3.35418
lowerneck -16.3476 -2.66366 -1.99947
upperneck 19.5578 -3.40485 1.03613
head 8.8741 -1.63641 0.261879
rclavicle 2.25124e-014 4.77083e-015
rhumerus -30.3949 -22.9157 -78.4719
rradius 22.6387
rwrist 9.05317
rhand -17.4259 24.1366
rfingers 7.12502
rthumb 8.82435 -5.65895
lclavicle 2.25124e-014 4.77083e-015
lhumerus -22.5219 -3.84124 83.8314
lradius 28.4024
lwrist 6.65559
lhand -25.3064 25.8174
lfingers 7.12502
lthumb 1.21566 55.7937
rfemur -31.1638 1.8964 18.1972
rtibia 37.7242
rfoot -5.772 -14.4786
rtoes -1.51914
lfemur 5.05323 -3.27925 -27.7327
ltibia 19.3909
lfoot -17.2193 -0.0449572
ltoes 2.80571
263
root 0.481901 17.8623 19.3711 -2.17702 1.65459 2.71345
lowerback 10.1612 -0.551981 -4.46859
upperback 0.456306 -1.21201 0.702505
thorax -5.11967 -0.484436 3.42893
lowerneck -16.3606 -2.55714 -2.10166
upperneck 19.5633 -3.24506 1.10066
head 8.87879 -1.56208 0.320365
rclavicle 1.04362e-015 5.96354e-015
rhumerus -30.2996 -22.4595 -78.5544
rradius 22.5034
rwrist 8.93434
rhand -17.7153 24.413
rfingers 7.12502
rthumb 8.54506 -5.39412
lclavicle 1.04362e-015 5.96354e-015
lhumerus -22.4351 -3.67806 83.8374
lradius 28.9881
lwrist 6.55127
lhand -25.0497 25.8559
lfingers 7.12502
lthumb 1.46355 55.8306
rfemur -30.8826 2.18045 18.0233
rtibia 34.4264
rfoot -5.86623 -14.9929
rtoes -1.40759
lfemur 5.93482 -3.43988 -27.6748
ltibia 18.6521
lfoot -17.2063 0.0708069
ltoes 2.60901
264
root 0.472974 17.8536 19.5433 -2.04955 1.81873 2.81651
lowerback 10.1825 -0.622745 -4.63116
upperback 0.51228 -1.32264 0.739692
thorax -5.05822 -0.537476 3.57505
lowerneck -16.4837 -2.5333 -2.13459
upperneck 19.3447 -3.21386 1.17556
head 8.82762 -1.54141 0.354693
rclavicle 5.44173e-015 -3.18055e-015
rhumerus -29.9583 -22.6564 -78.5078
rradius 22.2001
rwrist 9.19633
rhand -17.5146 24.7924
rfingers 7.12502
rthumb 8.73875 -5.00673
lclavicle 5.44173e-015 -3.18055e-015
lhumerus -22.0075 -4.03403 83.9234
lradius 29.3983
lwrist 7.00234
lhand -25.237 25.6533
lfingers 7.12502
lthumb 1.28267 55.6291
rfemur -30.5348 2.89523 17.5095
rtibia 31.1054
rfoot -6.11373 -15.5609
rtoes -1.48057
lfemur 6.73686 -3.53305 -27.7958
ltibia 17.986
lfoot -17.1899 0.078511
ltoes 2.4298
265
root 0.45391 17.8462 19.7131 -1.91554 1.77344 2.68054
lowerback 10.21 -0.623485 -4.61314
upperback 0.58881 -1.31842 0.791671
thorax -4.99266 -0.53849 3.61839
lowerneck -16.7491 -2.58987 -2.17661
upperneck 19.2937 -3.31321 1.34936
head 8.86393 -1.57061 0.405172
rclavicle -5.91384e-015 -3.97569e-016
rhumerus -29.6038 -22.6042 -78.7455
rradius 22.2074
rwrist 9.02101
rhand -17.2553 24.3941
rfingers 7.12502
rthumb 8.98899 -5.39443
lclavicle -5.91384e-015 -3.97569e-016
lhumerus -21.5102 -4.63419 83.8998
lradius 29.7388
lwrist 7.69299
lhand -25.4797 25.7831
lfingers 7.12502
lthumb 1.04822 55.7603
rfemur -30.1996 4.04463 17.2367
rtibia 27.9323
rfoot -6.08228 -16.0615
rtoes -3.43382
lfemur 7.59571 -3.18382 -27.5451
ltibia 17.1791
lfoot -17.166 -0.215423
ltoes 1.69684
266
root 0.44321 17.8369 19.8948 -1.8576 1.8544 2.74613
lowerback 10.2248 -0.667183 -4.67219
upperback 0.630828 -1.38402 0.773768
thorax -4.94956 -0.571714 3.64174
lowerneck -17.0927 -2.63158 -2.16541
upperneck 19.513 -3.37857 1.38553
head 9.00327 -1.59347 0.402155
rclavicle -1.86112e-014 1.07344e-014
rhumerus -29.5293 -22.1585 -79.0161
rradius 22.488
rwrist 8.50886
rhand -17.2177 24.0714
rfingers 7.12502
rthumb 9.02528 -5.71548
lclavicle -1.86112e-014 1.07344e-014
lhumerus -21.2063 -5.15061 83.8957
lradius 29.9529
lwrist 7.99732
lhand -26.4331 24.9901
lfingers 7.12502
lthumb 0.12746 54.9698
rfemur -29.7946 4.74573 16.7718
rtibia 24.9794
rfoot -6.12174 -16.1102
rtoes -5.76412
lfemur 8.69538 -2.83461 -27.5499
ltibia 16.2645
lfoot -17.091 -0.561471
ltoes 1.66189
267
root 0.440184 17.8216 20.081 -1.74717 2.10045 3.16932
lowerback 10.2576 -0.758071 -4.97531
upperback 0.56088 -1.54913 0.661016
thorax -5.02112 -0.644093 3.71947
lowerneck -17.2606 -2.61659 -2.14169
upperneck 19.6712 -3.33231 1.24972
head 9.08449 -1.58355 0.355047
rclavicle 2.25372e-014 8.74653e-015
rhumerus -29.5445 -22.0757 -78.9845
rradius 22.3596
rwrist 8.71261
rhand -17.6493 24.5901
rfingers 7.12502
rthumb 8.60883 -5.21436
lclavicle 2.25372e-014 8.74653e-015
lhumerus -21.1627 -5.52814 83.8941
lradius 30.2195
lwrist 7.96406
lhand -27.5925 23.7419
lfingers 7.12502
lthumb -0.992345 53.7193
rfemur -29.4825 5.37358 15.7903
rtibia 22.2028
rfoot -7.32637 -16.2242
rtoes -4.69154
lfemur 9.66393 -2.65116 -27.9956
ltibia 15.3661
lfoot -16.8516 -0.608158
ltoes 0.325056
268
root 0.429435 17.8067 20.2609 -1.56272 2.31776 3.52726
lowerback 10.1264 -0.834169 -5.34237
upperback 0.541079 -1.68854 0.60833
thorax -4.946 -0.70709 3.88712
lowerneck -17.2556 -2.65219 -2.17329
upperneck 19.5678 -3.35256 1.16792
head 9.04733 -1.60478 0.330274
rclavicle -1.26974e-014 -1.03368e-014
rhumerus -29.4025 -22.5809 -78.7503
rradius 21.9801
rwrist 9.45352
rhand -17.8825 25.1765
rfingers 7.12502
rthumb 8.38369 -4.63716
lclavicle -1.26974e-014 -1.03368e-014
lhumerus -21.1152 -5.80662 83.9358
lradius 30.6858
lwrist 8.13804
lhand -27.1299 24.7852
lfingers 7.12502
lthumb -0.54552 54.7642
rfemur -29.2798 6.61274 14.6803
rtibia 19.6651
rfoot -11.0149 -16.8356
rtoes 2.73233
lfemur 10.3909 -2.52449 -28.3537
ltibia 14.5271
lfoot -16.4897 -0.529278
ltoes -2.80687
